<?xml version="1.0" encoding="UTF-8" standalone="no"?>
<svg
   width="145"
   height="63.798504"
   viewBox="0 0 145 63.798504"
   fill="none"
   version="1.1"
   id="svg553"
   sodipodi:docname="community.svg"
   inkscape:export-filename="community.png"
   inkscape:export-xdpi="55.675285"
   inkscape:export-ydpi="55.675285"
   xmlns:inkscape="http://www.inkscape.org/namespaces/inkscape"
   xmlns:sodipodi="http://sodipodi.sourceforge.net/DTD/sodipodi-0.dtd"
   xmlns="http://www.w3.org/2000/svg"
   xmlns:svg="http://www.w3.org/2000/svg">
  <sodipodi:namedview
     id="namedview555"
     pagecolor="#ffffff"
     bordercolor="#000000"
     borderopacity="0.25"
     inkscape:showpageshadow="2"
     inkscape:pageopacity="0.0"
     inkscape:pagecheckerboard="0"
     inkscape:deskcolor="#d1d1d1"
     showgrid="false" />
  <path
     d="m 128.999,36.6 h -13.6 l 0.5,-12.6 h 12.6 z"
     fill="url(#paint0_linear_11466_63464)"
     id="path18"
     style="fill:url(#paint0_linear_11466_63464)" />
  <path
     d="m 122.199,30.3988 c 4.9,0 6.6,-0.2 6.6,0.7 l -0.1,-3.3 z"
     fill="#ce7e3c"
     id="path20" />
  <path
     d="m 122.2,30.3 c 5.191,0 9.4,-4.2085 9.4,-9.4 0,-5.1915 -4.209,-9.4 -9.4,-9.4 -5.192,0 -9.4,4.2085 -9.4,9.4 0,5.1915 4.208,9.4 9.4,9.4 z"
     fill="url(#paint1_radial_11466_63464)"
     id="path22"
     style="fill:url(#paint1_radial_11466_63464)" />
  <path
     d="M 127.5,7.5000003 H 117.3 V 14.6 h 10.2 z"
     fill="url(#paint2_linear_11466_63464)"
     id="path24"
     style="fill:url(#paint2_linear_11466_63464)" />
  <path
     d="m 131.9,21.8996 c 1.1,-2.9 1.7,-6 1.7,-9.1 0,-2 -0.9,-3.8999997 -2.4,-5.3999997 -0.3,-0.3 -0.6,-0.5 -0.9,-0.8 -1.2,-0.9 -2.6,-1.6 -4.1,-2 -0.6,-0.2 -1.3,-0.3 -1.9,-0.4 -0.7,-0.1 -1.3,-0.1 -2,-0.1 V 11.2996 c 2.2,4.6 5.3,8.6 9.2,12 z"
     fill="url(#paint3_radial_11466_63464)"
     id="path26"
     style="fill:url(#paint3_radial_11466_63464)" />
  <path
     d="m 112.599,21.8996 c -1.1,-2.9 -1.7,-6 -1.7,-9.1 0,-2 0.9,-3.8999997 2.4,-5.3999997 0.3,-0.3 0.6,-0.5 0.9,-0.8 1.2,-0.9 2.6,-1.6 4.1,-2 0.6,-0.2 1.3,-0.3 1.9,-0.4 0.7,-0.1 1.3,-0.1 2,-0.1 1.5,3.2 1.1,6.8999997 -0.9,9.6999997 -2.5,3.5 -5.7,7.2 -8.2,9.5 z"
     fill="url(#paint4_radial_11466_63464)"
     id="path28"
     style="fill:url(#paint4_radial_11466_63464)" />
  <path
     d="m 121.699,6.9996003 c 0.387,0 0.7,-0.3134 0.7,-0.7 0,-0.3866 -0.313,-0.7 -0.7,-0.7 -0.387,0 -0.7,0.3134 -0.7,0.7 0,0.3866 0.313,0.7 0.7,0.7 z"
     fill="url(#paint5_linear_11466_63464)"
     id="path30"
     style="fill:url(#paint5_linear_11466_63464)" />
  <path
     d="m 121.8,6.9000003 c 0.386,0 0.7,-0.3134 0.7,-0.7 0,-0.3866 -0.314,-0.7 -0.7,-0.7 -0.387,0 -0.7,0.3134 -0.7,0.7 0,0.3866 0.313,0.7 0.7,0.7 z"
     fill="url(#paint6_linear_11466_63464)"
     id="path32"
     style="fill:url(#paint6_linear_11466_63464)" />
  <path
     d="m 145,63.6988 -1.7,-25.3 c -0.1,-1.4 -0.5,-2.7 -1.3,-3.9 -1.5,-2.3 -4,-3.7 -6.8,-3.8 -2.2,-0.1 -4.3,0.3 -6.4,1 l -0.5,0.2 c -4,1.3 -8.3,1.3 -12.3,-0.1 -2.1,-0.7 -4.3,-1.1 -6.6,-1.1 -2.7,0.1 -5.2,1.4 -6.8,3.6 -0.9,1.3 -1.5,2.9 -1.6,4.5 l -1.7002,24.9 z"
     fill="url(#paint7_radial_11466_63464)"
     id="path34"
     style="fill:url(#paint7_radial_11466_63464)" />
  <path
     d="M 135.4,40.1992 H 109 v 23.5 h 26.4 z"
     fill="url(#paint8_radial_11466_63464)"
     id="path36"
     style="fill:url(#paint8_radial_11466_63464)" />
  <path
     d="m 10.2,62.1992 h 60.6 c 0.4,0 0.7,0.3 0.7,0.7 0,0.4 -0.3,0.7 -0.7,0.7 H 10.2 c -0.4,0 -0.7,-0.3 -0.7,-0.7 0,-0.3 0.3,-0.7 0.7,-0.7 z"
     fill="url(#paint9_linear_11466_63464)"
     id="path38"
     style="fill:url(#paint9_linear_11466_63464)" />
  <path
     d="m 24.5,25.1985 h 9.8 l -0.2,-9.3 h -9.3 z"
     fill="url(#paint10_linear_11466_63464)"
     id="path40"
     style="fill:url(#paint10_linear_11466_63464)" />
  <path
     d="m 29.4004,21.0988 c 2.5,-0.4 4.8,1 4.8,1 v -2.3 l -4.6,0.7 z"
     fill="#211613"
     id="path42" />
  <path
     d="m 29.4004,21.1992 c 4.9706,0 9,-4.0294 9,-9 0,-4.9704997 -4.0294,-8.9999997 -9,-8.9999997 -4.9706,0 -9,4.0295 -9,8.9999997 0,4.9706 4.0294,9 9,9 z"
     fill="url(#paint11_radial_11466_63464)"
     id="path44"
     style="fill:url(#paint11_radial_11466_63464)" />
  <path
     d="m 29.4004,3.1992003 c 5,0 9,4 9,8.9999997 0,0.7 -0.1,1.5 -0.3,2.2 -2.3,-1.6 -3.6,-4.3 -3.4,-7.0999997 0,-0.2 -0.1,-0.4 -0.4,-0.4 -0.1,0 -0.2,0 -0.2,0 l -2,1 c -1.7,0.8 -3.7,0.8 -5.4,0 l -2,-1 c -0.2,-0.1 -0.5,0 -0.6,0.2 0,0.1 0,0.1 0,0.2 0.2,2.7999997 -1.1,5.4999997 -3.4,7.0999997 -1.2,-4.7999997 1.7,-9.6999997 6.5,-10.8999997 0.8,-0.2 1.5,-0.3 2.2,-0.3 z"
     fill="url(#paint12_radial_11466_63464)"
     id="path46"
     style="fill:url(#paint12_radial_11466_63464)" />
  <path
     d="m 8.8998,27.2985 0.7,2.2 c 0.8,2.4 1.5,4.8 2.1,7.3 l 1.9,-8.2 c 0.7,-3.2 3.2,-5.6 6.4,-6.3 1.4,-0.3 2.9,-0.3 4.2,0.1 l 1.8,0.4 c 2.5,0.7 5.2,0.6 7.7,-0.3 1.4,-0.5 2.9,-0.7 4.4,-0.5 2.7,0.3 5.1,1.8 6.6,4 l 0.3,0.5 c 0.8,1.2 1.4,2.6 1.6,4 l 5.1,33.3 h -36 l 0.5,-16.3 c -3,2.7 -7.4,2.9 -10.6,0.5 -2.1,-1.6 -3.3,-4 -3.3,-6.6 v -11 z"
     fill="url(#paint13_radial_11466_63464)"
     id="path48"
     style="fill:url(#paint13_radial_11466_63464)" />
  <path
     d="m 43,32.3977 v 31.3 h 8.8 l -5.1,-32.6 z"
     fill="url(#paint14_radial_11466_63464)"
     id="path50"
     style="fill:url(#paint14_radial_11466_63464)" />
  <path
     d="m 16.9998,23.4981 c -1.7,1.2 -2.9,3 -3.4,5 l -1.9,8.3 c -0.6,-2.4 -1.4,-4.9 -2.1,-7.3 l -0.7,-2.2 -6.6,3.1 v 10.8 c 0,2.6 1.2,5.1 3.3,6.6 3.2,2.4 7.6,2.2 10.6,-0.5 z"
     fill="url(#paint15_radial_11466_63464)"
     id="path52"
     style="fill:url(#paint15_radial_11466_63464)" />
  <path
     d="m 16.1002,30.2977 -2.3,-2.2 c 0,0.2 -0.1,0.3 -0.1,0.5 l -2,8.2 c 0.3,1.2 1.3,5.1 1.5,6.2 z"
     fill="url(#paint16_radial_11466_63464)"
     id="path54"
     style="fill:url(#paint16_radial_11466_63464)" />
  <path
     d="m 2.3,30.3981 -0.5,-1.2 c -1,-2.6 -1.6,-5.4 -1.7,-8.2 l -0.1,-2.9 c 0,-0.6 0.4,-1.1 1,-1.1 0.2,0 0.4,0 0.6,0.1 l -0.3,-1.7 c -0.1,-0.5 0.3,-1 0.8,-1.1 0.2,0 0.3,0 0.5,0.1 l -0.1,-0.3 c -0.1,-0.5 0.2,-1.1 0.8,-1.2 h 0.1 c 0.5,-0.1 1,0.2 1.1,0.7 0.2,-0.2 0.4,-0.4 0.7,-0.4 0.5,-0.1 1,0.2 1.2,0.7 0.8,2.6 1.2,5.3 1.2,8 v 0.7 l 0.8,-2.9 c 0.2,-0.6 0.7,-0.9 1.3,-0.9 0.7,0.1 1.2,0.7 1.1,1.3 0,0 0,0 0,0.1 -0.4,2.4 -1,4.8 -1.9,7.1 z"
     fill="url(#paint17_radial_11466_63464)"
     id="path56"
     style="fill:url(#paint17_radial_11466_63464)" />
  <path
     d="m 4.2998,14.3988 c 0.4,1.7 0.7,3.4 0.9,5.1 0.4,-0.1 0.9,-0.1 1.3,-0.1 h 1 c -0.2,-1.9 -0.5,-3.8 -1.1,-5.6 -0.2,-0.6 -0.8,-0.9 -1.3,-0.7 -0.2,0.1 -0.4,0.2 -0.5,0.4 -0.3,0.3 -0.3,0.6 -0.3,0.9 z"
     fill="url(#paint18_radial_11466_63464)"
     id="path58"
     style="fill:url(#paint18_radial_11466_63464)" />
  <path
     d="M 2.1,20.998 2,20.398 c -0.1,-1.1 -0.3,-2.2 -0.4,-3.3 -0.5,-0.3 -1.2,-0.1 -1.4,0.4 -0.2,0.2 -0.2,0.4 -0.2,0.6 l 0.2,2.9 c 0,0.7 0.1,1.3 0.1,2 l 1,-1.2 c 0.3,-0.3 0.5,-0.6 0.8,-0.8 z"
     fill="url(#paint19_radial_11466_63464)"
     id="path60"
     style="fill:url(#paint19_radial_11466_63464)" />
  <path
     d="m 9.7,18.7985 c -0.6,-0.1 -1.1,0.3 -1.3,0.9 l -0.8,2.9 c -1.3,0.6 -2.4,1.5 -3,2.8 l -0.6,0.9 0.4,3.1 4.5,-2.1 c 0.9,-2.3 1.6,-4.7 1.9,-7.1 0.1,-0.7 -0.4,-1.3 -1.1,-1.4 z"
     fill="url(#paint20_radial_11466_63464)"
     id="path62"
     style="fill:url(#paint20_radial_11466_63464)" />
  <path
     d="m 2.6,14.3985 0.4,1.6 c 0.2,0.9 0.4,1.8 0.5,2.8 l 0.2,1.3 c 0.1,0 0.2,-0.1 0.3,-0.1 0.4,-0.2 0.8,-0.3 1.2,-0.3 -0.2,-1.9 -0.5,-3.6 -0.9,-5.3 -0.1,-0.3 0,-0.6 0.2,-0.9 -0.1,-0.5 -0.6,-0.8 -1.1,-0.7 -0.6,0.1 -0.9,0.6 -0.9,1.1 v 0.1 z"
     fill="url(#paint21_radial_11466_63464)"
     id="path64"
     style="fill:url(#paint21_radial_11466_63464)" />
  <path
     d="m 1.60019,17.0988 c 0.2,1.1 0.3,2.2 0.4,3.3 l 0.1,0.6 c 0.5,-0.4 1,-0.7 1.6,-1 l -0.2,-1.3 c -0.2,-0.9 -0.3,-1.8 -0.5,-2.7 l -0.3,-1.6 c -0.2,-0.1 -0.3,-0.1 -0.5,-0.1 -0.5,0.1 -0.9,0.6 -0.8,1.1 z"
     fill="url(#paint22_radial_11466_63464)"
     id="path66"
     style="fill:url(#paint22_radial_11466_63464)" />
  <path
     d="m 91.3992,25.4 c 7.014,0 12.6998,-5.686 12.6998,-12.7 C 104.099,5.6860003 98.4132,3.2348633e-7 91.3992,3.2348633e-7 84.3852,3.2348633e-7 78.6992,5.6860003 78.6992,12.7 c 0,7.014 5.686,12.7 12.7,12.7 z"
     fill="url(#paint23_radial_11466_63464)"
     id="path68"
     style="fill:url(#paint23_radial_11466_63464)" />
  <path
     d="m 96.3994,29.1996 h -10 l 0.4,-9.1 h 9.1 z"
     fill="url(#paint24_linear_11466_63464)"
     id="path70"
     style="fill:url(#paint24_linear_11466_63464)" />
  <path
     d="m 91.3994,24.8008 c 3.5,0 4.8,-0.2 4.8,0.9 l -0.1,-2.4 z"
     fill="#51200f"
     id="path72" />
  <path
     d="m 83.2988,16.7008 c 0,-3.8 4.1,-6.4 8.1,-6.4 4,0 8.1,2.6 8.1,6.4 0.1,4.5 -3.4,8.2 -7.8,8.3 -4.5,0.1 -8.2,-3.4 -8.3,-7.8 -0.1,-0.2 -0.1,-0.3 -0.1,-0.5 z"
     fill="url(#paint25_radial_11466_63464)"
     id="path74"
     style="fill:url(#paint25_radial_11466_63464)" />
  <path
     d="m 102.5,63.7004 -0.3,-10.9 1.3,0.6 c 2.7,1.3 5.9,0.3 7.4,-2.3 0.7,-1.2 0.9,-2.6 0.6,-4 l -3,-13.4 c -0.7,-3.2 -3,-5.9 -6.1,-7.1 -1.8,-0.7 -3.9002,-0.9 -5.8002,-0.4 -3,0.7 -6.1,0.6 -9.1,-0.2 l -1,-0.3 c -1.6,-0.4 -3.2,-0.5 -4.8,-0.1 -2.8,0.6 -5.2,2.3 -6.6,4.8 -0.9,1.5 -1.4,3.2 -1.4,4.9 l -0.9,28.2 H 102.5 Z"
     fill="url(#paint26_radial_11466_63464)"
     id="path76"
     style="fill:url(#paint26_radial_11466_63464)" />
  <path
     d="m 102.3,55.7004 -0.1,-2.2 c 0,-0.1 0,-0.6 0,-0.6 l -0.2,-9 -0.2,-9.5 H 80.7996 l -0.7,29.3 H 102.6 c -0.1,0 -0.2,-4.9 -0.3,-8 z"
     fill="url(#paint27_radial_11466_63464)"
     id="path78"
     style="fill:url(#paint27_radial_11466_63464)" />
  <path
     d="m 93.9994,33.0996 h -8.1 v 1.4 h 8.1 z"
     fill="url(#paint28_linear_11466_63464)"
     id="path80"
     style="fill:url(#paint28_linear_11466_63464)" />
  <path
     d="m 93.399,33.1 -0.4,-1.1 h -6 l -0.5,1.1 z"
     fill="url(#paint29_linear_11466_63464)"
     id="path82"
     style="fill:url(#paint29_linear_11466_63464)" />
  <path
     d="m 93.399,34.5 -0.5,8.5 h -5.9 l -0.5,-8.5 z"
     fill="url(#paint30_linear_11466_63464)"
     id="path84"
     style="fill:url(#paint30_linear_11466_63464)" />
  <path
     d="m 86.599,35.7 c 0,-0.7 6.8,-0.9 6.7,0.4 l 0.1,-1.6 h -6.9 z"
     fill="#14a800"
     id="path86" />
  <path
     d="m 96.3998,47.5008 c -1.6,-0.9 -2.9,-2.1 -3.7,-3.7 -0.3,-0.5 -0.8,-1 -1.3,-1.2 l -1.3,-0.5 c -0.4,-0.2 -0.6,-0.6 -0.5,-1 0,-0.1 0.1,-0.2 0.2,-0.3 h -0.1 c -0.5,-0.1 -0.8,-0.6 -0.8,-1.1 0,-0.3 0.2,-0.6 0.4,-0.8 -0.3,-0.2 -0.5,-0.5 -0.5,-0.8 0,-0.4 0.2,-0.7 0.6,-0.8 -0.1,-0.2 -0.1,-0.3 -0.1,-0.5 0,-0.6 0.5,-1 1,-1 h 1.6 c 1.2,0 2.3,0.4 3.3,1 1.1,0.7 1.9,1.8 2.4,3 l 1.1,2.9 z"
     fill="url(#paint31_radial_11466_63464)"
     id="path88"
     style="fill:url(#paint31_radial_11466_63464)" />
  <path
     d="m 95.2999,40.6012 0.3,-2.1 c -1.5,-0.9 -3.2,-1.3 -4.9,-1.3 h -1 c -0.1,0 -0.2,0 -0.3,0.1 -0.5,0.2 -0.7,0.7 -0.5,1.2 0.1,0.2 0.2,0.3 0.4,0.4 0.1,0.1 0.3,0.1 0.4,0.1 1.8,0 3.6,0.5 5.2,1.3 z"
     fill="url(#paint32_radial_11466_63464)"
     id="path90"
     style="fill:url(#paint32_radial_11466_63464)" />
  <path
     d="m 96.2002,37.7008 c -0.3,-0.3 -0.7,-0.6 -1,-0.9 -1,-0.6 -2.1,-1 -3.3,-1 h -1.6 c -0.6,0 -1,0.4 -1.1,1 0,0.1 0,0.2 0.1,0.3 l 0.1,0.2 c 0.1,0 0.2,-0.1 0.3,-0.1 h 1 c 1.7,0 3.4,0.4 4.9,1.3 z"
     fill="url(#paint33_radial_11466_63464)"
     id="path92"
     style="fill:url(#paint33_radial_11466_63464)" />
  <path
     d="m 95.2998,40.6 -0.5,-0.2 c -1.6,-0.8 -3.4,-1.3 -5.2,-1.3 -0.1,0 -0.3,0 -0.4,-0.1 -0.2,0.2 -0.4,0.5 -0.4,0.8 0,0.5 0.3,1 0.8,1.1 h 0.1 c 1.8,0.4 3.5,1 5.1,1.7 z"
     fill="url(#paint34_radial_11466_63464)"
     id="path94"
     style="fill:url(#paint34_radial_11466_63464)" />
  <path
     d="m 93.2997,44.9004 1.6,-2.3 c -1.6,-0.8 -3.4,-1.4 -5.1,-1.7 -0.1,0.1 -0.1,0.2 -0.2,0.3 -0.1,0.4 0.1,0.9 0.5,1 l 1.3,0.5 c 0.6,0.2 1.1,0.6 1.3,1.2 0.2,0.3 0.4,0.6 0.6,1 z"
     fill="url(#paint35_radial_11466_63464)"
     id="path96"
     style="fill:url(#paint35_radial_11466_63464)" />
  <path
     d="m 111.499,47.0996 -3,-13 -6.8,0.2 0.3,9.5 -3.2996,-1 -3.3,6.7 6.8996,3.3 1.3,0.6 c 2.7,1.3 5.9,0.3 7.4,-2.3 0.7,-1.2 0.9,-2.6 0.5,-4 z"
     fill="url(#paint36_radial_11466_63464)"
     id="path98"
     style="fill:url(#paint36_radial_11466_63464)" />
  <path
     d="m 73.5996,34.3012 c -0.1,0.4 -0.1,0.7 -0.1,1.1 l -0.9,28.2 h 7.4 l 0.7,-29.4 z"
     fill="url(#paint37_radial_11466_63464)"
     id="path100"
     style="fill:url(#paint37_radial_11466_63464)" />
  <path
     d="m 102,43.8004 6,1.8 -1.8,-14.2 -4.4,2.9 z"
     fill="url(#paint38_radial_11466_63464)"
     id="path102"
     style="fill:url(#paint38_radial_11466_63464)" />
  <path
     d="m 69.0004,31.3 c 1.6,-2.7 2,-5.9 1.1,-8.8 -0.7,-2.4 -1.1,-4.8 -1.1,-7.3 v -0.4 c 0,-5.5999997 -4.6,-10.2999997 -10.2,-10.2999997 -5.6,0 -10.1,4.6 -10.1,10.1999997 v 0.5 c 0,2.5 -0.4,5 -1.1,7.3 -0.9,3 -0.5,6.2 1.1,8.8 v 0.5 h 0.3 c 2.1,3.1 5.7,5.1 9.8,5.1 4.1,0 7.7,-2 9.8,-5.1 h 0.4 z"
     fill="url(#paint39_radial_11466_63464)"
     id="path104"
     style="fill:url(#paint39_radial_11466_63464)" />
  <path
     d="m 64.7998,29 h -12 l 1,-10 h 10 z"
     fill="url(#paint40_linear_11466_63464)"
     id="path106"
     style="fill:url(#paint40_linear_11466_63464)" />
  <path
     d="m 58.7998,22.5996 c 2.5,0 5.4,0.1 5.5,1.2 l -0.4,-3.7 z"
     fill="#a06069"
     id="path108" />
  <path
     d="m 58.7998,8.5000003 c -5.2,0 -4.6,6.1999997 -8,6.1999997 0.1,4.4 3.7,8 8.1,7.9 4.4,0 7.9,-3.6 7.9,-7.9 -3.4,-0.1 -2.9,-6.1999997 -8,-6.1999997 z"
     fill="url(#paint41_radial_11466_63464)"
     id="path110"
     style="fill:url(#paint41_radial_11466_63464)" />
  <path
     d="m 42.8004,35.4004 -1.4,28.3 h 5.2 l 0.4,-25 z"
     fill="url(#paint42_linear_11466_63464)"
     id="path112"
     style="fill:url(#paint42_linear_11466_63464)" />
  <path
     d="m 74.7,36.9004 1.5,26.8 h -5.3 l -0.4,-25 z"
     fill="url(#paint43_linear_11466_63464)"
     id="path114"
     style="fill:url(#paint43_linear_11466_63464)" />
  <path
     d="m 70.9,63.6996 -0.3,-22.9 6.5,-6 -1.8,-4.1 c -1.3,-3.1 -4.4,-5 -7.7,-5 -1,0 -2,0.2 -2.9,0.5 -3.8,1.4 -8,1.4 -11.8,0 -1,-0.4 -1.9,-0.6 -2.9,-0.6 -3.3,0 -6.4,2 -7.7,5 l -1.8,4.2 6.5,6 -0.3,22.9 z"
     fill="url(#paint44_radial_11466_63464)"
     id="path116"
     style="fill:url(#paint44_radial_11466_63464)" />
  <path
     d="m 42.7998,36.9004 c 1.4,1.3 4.1,4.9 4.1,6.9 v -3 z"
     fill="#a06069"
     id="path118" />
  <path
     d="m 71.0996,40.4004 c 0.5,12 1,23.3 2,23.3 h -2.2 l -0.3,-22.9 z"
     fill="#a06069"
     id="path120" />
  <path
     d="m 70.5996,44.1004 c 0,-3.3 4.2,-6.7 4.2,-4.9 l -0.1,-2.3 -4.1,3.9 z"
     fill="#a06069"
     id="path122" />
  <path
     d="m 47,26.1992 c -2.1,0.8 -3.8,2.4 -4.7,4.5 l -1.8,4.1 6.5,6 z"
     fill="url(#paint45_radial_11466_63464)"
     id="path124"
     style="fill:url(#paint45_radial_11466_63464)" />
  <path
     d="m 70.5,26.1992 c 2.1,0.8 3.8,2.4 4.7,4.5 l 1.8,4.1 -6.4,6 z"
     fill="url(#paint46_radial_11466_63464)"
     id="path126"
     style="fill:url(#paint46_radial_11466_63464)" />
  <defs
     id="defs551">
    <linearGradient
       id="paint0_linear_11466_63464"
       x1="115.416"
       y1="63.507401"
       x2="129.03999"
       y2="63.507401"
       gradientUnits="userSpaceOnUse"
       gradientTransform="translate(0,-33.1992)">
      <stop
         offset="0.68"
         stop-color="#FCCD81"
         id="stop128" />
      <stop
         offset="0.81"
         stop-color="#F6B96C"
         id="stop130" />
      <stop
         offset="1"
         stop-color="#EB9546"
         id="stop132" />
    </linearGradient>
    <radialGradient
       id="paint1_radial_11466_63464"
       cx="0"
       cy="0"
       r="1"
       gradientUnits="userSpaceOnUse"
       gradientTransform="matrix(14.2542,0,0,14.2542,118.667,15.8859)">
      <stop
         offset="0.68"
         stop-color="#FCCD81"
         id="stop135" />
      <stop
         offset="0.81"
         stop-color="#F6B96C"
         id="stop137" />
      <stop
         offset="1"
         stop-color="#EB9546"
         id="stop139" />
    </radialGradient>
    <linearGradient
       id="paint2_linear_11466_63464"
       x1="117.288"
       y1="44.2057"
       x2="127.479"
       y2="44.2057"
       gradientUnits="userSpaceOnUse"
       gradientTransform="translate(0,-33.1992)">
      <stop
         offset="0.68"
         stop-color="#F2F7F2"
         id="stop142" />
      <stop
         offset="0.83"
         stop-color="#DDE7DD"
         id="stop144" />
      <stop
         offset="1"
         stop-color="#C3D2C3"
         id="stop146" />
    </linearGradient>
    <radialGradient
       id="paint3_radial_11466_63464"
       cx="0"
       cy="0"
       r="1"
       gradientUnits="userSpaceOnUse"
       gradientTransform="matrix(7.3476881,-2.8487707,4.3870926,11.315403,124.565,13.1497)">
      <stop
         offset="0.68"
         stop-color="#13544E"
         id="stop149" />
      <stop
         offset="0.94"
         stop-color="#0E3F3A"
         id="stop151" />
      <stop
         offset="1"
         stop-color="#0D3A35"
         id="stop153" />
    </radialGradient>
    <radialGradient
       id="paint4_radial_11466_63464"
       cx="0"
       cy="0"
       r="1"
       gradientUnits="userSpaceOnUse"
       gradientTransform="matrix(9.1006189,4.0001032,-5.7601328,13.104855,112.785,8.5549003)">
      <stop
         offset="0.68"
         stop-color="#13544E"
         id="stop156" />
      <stop
         offset="0.94"
         stop-color="#0E3F3A"
         id="stop158" />
      <stop
         offset="1"
         stop-color="#0D3A35"
         id="stop160" />
    </radialGradient>
    <linearGradient
       id="paint5_linear_11466_63464"
       x1="121.733"
       y1="40.1758"
       x2="121.733"
       y2="38.7911"
       gradientUnits="userSpaceOnUse"
       gradientTransform="translate(0,-33.1992)">
      <stop
         offset="0.35"
         stop-color="#EB9546"
         id="stop163" />
      <stop
         offset="0.61"
         stop-color="#F1A95B"
         id="stop165" />
      <stop
         offset="1"
         stop-color="#FCCD81"
         id="stop167" />
    </linearGradient>
    <linearGradient
       id="paint6_linear_11466_63464"
       x1="121.338"
       y1="39.9217"
       x2="122.317"
       y2="38.9431"
       gradientUnits="userSpaceOnUse"
       gradientTransform="translate(0,-33.1992)">
      <stop
         offset="0.35"
         stop-color="#EB9546"
         id="stop170" />
      <stop
         offset="0.61"
         stop-color="#F1A95B"
         id="stop172" />
      <stop
         offset="1"
         stop-color="#FCCD81"
         id="stop174" />
    </linearGradient>
    <radialGradient
       id="paint7_radial_11466_63464"
       cx="0"
       cy="0"
       r="1"
       gradientUnits="userSpaceOnUse"
       gradientTransform="matrix(26.3369,0,0,48.1965,119.452,46.367)">
      <stop
         offset="0.68"
         stop-color="#95DF00"
         id="stop177" />
      <stop
         offset="0.74"
         stop-color="#80D600"
         id="stop179" />
      <stop
         offset="0.88"
         stop-color="#4BBF00"
         id="stop181" />
      <stop
         offset="1"
         stop-color="#14A800"
         id="stop183" />
    </radialGradient>
    <radialGradient
       id="paint8_radial_11466_63464"
       cx="0"
       cy="0"
       r="1"
       gradientUnits="userSpaceOnUse"
       gradientTransform="matrix(22.225,0,0,54.0067,121.809,29.9892)">
      <stop
         offset="0.68"
         stop-color="#14A800"
         stop-opacity="0"
         id="stop186" />
      <stop
         offset="0.73"
         stop-color="#14A800"
         stop-opacity="0.12"
         id="stop188" />
      <stop
         offset="0.84"
         stop-color="#14A800"
         stop-opacity="0.44"
         id="stop190" />
      <stop
         offset="0.99"
         stop-color="#14A800"
         stop-opacity="0.95"
         id="stop192" />
      <stop
         offset="1"
         stop-color="#14A800"
         id="stop194" />
    </radialGradient>
    <linearGradient
       id="paint9_linear_11466_63464"
       x1="9.4739399"
       y1="96.159599"
       x2="71.5494"
       y2="96.159599"
       gradientUnits="userSpaceOnUse"
       gradientTransform="translate(0,-33.1992)">
      <stop
         stop-color="#C5D1C3"
         stop-opacity="0"
         id="stop197" />
      <stop
         offset="0.01"
         stop-color="#C5D1C3"
         stop-opacity="0.05"
         id="stop199" />
      <stop
         offset="0.05"
         stop-color="#C5D1C3"
         stop-opacity="0.3"
         id="stop201" />
      <stop
         offset="0.09"
         stop-color="#C5D1C3"
         stop-opacity="0.51"
         id="stop203" />
      <stop
         offset="0.14"
         stop-color="#C5D1C3"
         stop-opacity="0.69"
         id="stop205" />
      <stop
         offset="0.18"
         stop-color="#C5D1C3"
         stop-opacity="0.82"
         id="stop207" />
      <stop
         offset="0.22"
         stop-color="#C5D1C3"
         stop-opacity="0.92"
         id="stop209" />
      <stop
         offset="0.27"
         stop-color="#C5D1C3"
         stop-opacity="0.98"
         id="stop211" />
      <stop
         offset="0.31"
         stop-color="#C5D1C3"
         id="stop213" />
      <stop
         offset="0.37"
         stop-color="#C5D1C3"
         id="stop215" />
      <stop
         offset="0.75"
         stop-color="#C5D1C3"
         id="stop217" />
      <stop
         offset="0.8"
         stop-color="#C5D1C3"
         stop-opacity="0.79"
         id="stop219" />
      <stop
         offset="0.94"
         stop-color="#C5D1C3"
         stop-opacity="0.23"
         id="stop221" />
      <stop
         offset="1"
         stop-color="#C5D1C3"
         stop-opacity="0.01"
         id="stop223" />
    </linearGradient>
    <linearGradient
       id="paint10_linear_11466_63464"
       x1="24.5455"
       y1="53.703999"
       x2="34.337898"
       y2="53.703999"
       gradientUnits="userSpaceOnUse"
       gradientTransform="translate(0,-33.1992)">
      <stop
         offset="0.68"
         stop-color="#4A3328"
         id="stop226" />
      <stop
         offset="0.85"
         stop-color="#35241D"
         id="stop228" />
      <stop
         offset="1"
         stop-color="#211613"
         id="stop230" />
    </linearGradient>
    <radialGradient
       id="paint11_radial_11466_63464"
       cx="0"
       cy="0"
       r="1"
       gradientUnits="userSpaceOnUse"
       gradientTransform="matrix(14.5852,0,0,14.5852,26.5462,6.1063003)">
      <stop
         offset="0.68"
         stop-color="#4A3328"
         id="stop233" />
      <stop
         offset="0.85"
         stop-color="#35241D"
         id="stop235" />
      <stop
         offset="1"
         stop-color="#211613"
         id="stop237" />
    </radialGradient>
    <radialGradient
       id="paint12_radial_11466_63464"
       cx="0"
       cy="0"
       r="1"
       gradientUnits="userSpaceOnUse"
       gradientTransform="matrix(10.0614,0,0,10.0614,28.1138,8.6445003)">
      <stop
         offset="0.68"
         stop-color="#AE572A"
         id="stop240" />
      <stop
         offset="0.78"
         stop-color="#994C25"
         id="stop242" />
      <stop
         offset="1"
         stop-color="#652F19"
         id="stop244" />
    </radialGradient>
    <radialGradient
       id="paint13_radial_11466_63464"
       cx="0"
       cy="0"
       r="1"
       gradientUnits="userSpaceOnUse"
       gradientTransform="matrix(28.615186,-6.731973,8.6173853,36.629393,24.0822,46.6401)">
      <stop
         offset="0.53"
         stop-color="#91E6B2"
         id="stop247" />
      <stop
         offset="0.64"
         stop-color="#8FE5AF"
         id="stop249" />
      <stop
         offset="0.71"
         stop-color="#89E2A6"
         id="stop251" />
      <stop
         offset="0.77"
         stop-color="#7EDD97"
         id="stop253" />
      <stop
         offset="0.83"
         stop-color="#6FD582"
         id="stop255" />
      <stop
         offset="0.88"
         stop-color="#5CCC66"
         id="stop257" />
      <stop
         offset="0.93"
         stop-color="#44C044"
         id="stop259" />
      <stop
         offset="0.97"
         stop-color="#28B21D"
         id="stop261" />
      <stop
         offset="1"
         stop-color="#14A800"
         id="stop263" />
    </radialGradient>
    <radialGradient
       id="paint14_radial_11466_63464"
       cx="0"
       cy="0"
       r="1"
       gradientUnits="userSpaceOnUse"
       gradientTransform="matrix(12.96563,-1.646845,4.0842507,32.155355,52.5504,32.1411)">
      <stop
         offset="0.64"
         stop-color="#126B00"
         stop-opacity="0"
         id="stop266" />
      <stop
         offset="0.74"
         stop-color="#126B00"
         stop-opacity="0.03"
         id="stop268" />
      <stop
         offset="0.8"
         stop-color="#126B00"
         stop-opacity="0.11"
         id="stop270" />
      <stop
         offset="0.86"
         stop-color="#126B00"
         stop-opacity="0.25"
         id="stop272" />
      <stop
         offset="0.91"
         stop-color="#126B00"
         stop-opacity="0.45"
         id="stop274" />
      <stop
         offset="0.96"
         stop-color="#126B00"
         stop-opacity="0.7"
         id="stop276" />
      <stop
         offset="1"
         stop-color="#126B00"
         id="stop278" />
    </radialGradient>
    <radialGradient
       id="paint15_radial_11466_63464"
       cx="0"
       cy="0"
       r="1"
       gradientUnits="userSpaceOnUse"
       gradientTransform="matrix(11.465117,7.0139472,-9.8269051,16.063225,8.02075,32.486)">
      <stop
         offset="0.53"
         stop-color="#91E6B2"
         id="stop281" />
      <stop
         offset="0.64"
         stop-color="#8FE5AF"
         id="stop283" />
      <stop
         offset="0.71"
         stop-color="#89E2A6"
         id="stop285" />
      <stop
         offset="0.77"
         stop-color="#7EDD97"
         id="stop287" />
      <stop
         offset="0.83"
         stop-color="#6FD582"
         id="stop289" />
      <stop
         offset="0.88"
         stop-color="#5CCC66"
         id="stop291" />
      <stop
         offset="0.93"
         stop-color="#44C044"
         id="stop293" />
      <stop
         offset="0.97"
         stop-color="#28B21D"
         id="stop295" />
      <stop
         offset="1"
         stop-color="#14A800"
         id="stop297" />
    </radialGradient>
    <radialGradient
       id="paint16_radial_11466_63464"
       cx="0"
       cy="0"
       r="1"
       gradientUnits="userSpaceOnUse"
       gradientTransform="matrix(5.6860414,1.9257582,-2.6959043,7.9599938,7.97978,40.4076)">
      <stop
         offset="0.53"
         stop-color="#14A800"
         id="stop300" />
      <stop
         offset="0.97"
         stop-color="#14A800"
         stop-opacity="0"
         id="stop302" />
    </radialGradient>
    <radialGradient
       id="paint17_radial_11466_63464"
       cx="0"
       cy="0"
       r="1"
       gradientUnits="userSpaceOnUse"
       gradientTransform="matrix(7.2480445,0.85756243,-1.3034982,11.017055,0.377166,21.5144)">
      <stop
         offset="0.68"
         stop-color="#4A3328"
         id="stop305" />
      <stop
         offset="0.85"
         stop-color="#35241D"
         id="stop307" />
      <stop
         offset="1"
         stop-color="#211613"
         id="stop309" />
    </radialGradient>
    <radialGradient
       id="paint18_radial_11466_63464"
       cx="0"
       cy="0"
       r="1"
       gradientUnits="userSpaceOnUse"
       gradientTransform="matrix(2.4929872,-0.21810855,0.43621798,4.9859843,4.24032,16.8309)">
      <stop
         offset="0.68"
         stop-color="#4A3328"
         id="stop312" />
      <stop
         offset="0.85"
         stop-color="#35241D"
         id="stop314" />
      <stop
         offset="1"
         stop-color="#211613"
         id="stop316" />
    </radialGradient>
    <radialGradient
       id="paint19_radial_11466_63464"
       cx="0"
       cy="0"
       r="1"
       gradientUnits="userSpaceOnUse"
       gradientTransform="matrix(2.1852281,-0.30902209,0.63377834,4.4817192,-0.616021,20.3486)">
      <stop
         offset="0.68"
         stop-color="#4A3328"
         id="stop319" />
      <stop
         offset="0.85"
         stop-color="#35241D"
         id="stop321" />
      <stop
         offset="1"
         stop-color="#211613"
         id="stop323" />
    </radialGradient>
    <radialGradient
       id="paint20_radial_11466_63464"
       cx="0"
       cy="0"
       r="1"
       gradientUnits="userSpaceOnUse"
       gradientTransform="matrix(4.4863276,0.53080607,-0.80682495,6.8192156,5.37981,21.0466)">
      <stop
         offset="0.68"
         stop-color="#4A3328"
         id="stop326" />
      <stop
         offset="0.78"
         stop-color="#4A3328"
         stop-opacity="0.72"
         id="stop328" />
      <stop
         offset="1"
         stop-color="#4A3328"
         stop-opacity="0"
         id="stop330" />
    </radialGradient>
    <radialGradient
       id="paint21_radial_11466_63464"
       cx="0"
       cy="0"
       r="1"
       gradientUnits="userSpaceOnUse"
       gradientTransform="matrix(2.6603042,-0.06826726,0.12970568,5.0544961,2.37887,16.8746)">
      <stop
         offset="0.68"
         stop-color="#4A3328"
         id="stop333" />
      <stop
         offset="0.85"
         stop-color="#35241D"
         id="stop335" />
      <stop
         offset="1"
         stop-color="#211613"
         id="stop337" />
    </radialGradient>
    <radialGradient
       id="paint22_radial_11466_63464"
       cx="0"
       cy="0"
       r="1"
       gradientUnits="userSpaceOnUse"
       gradientTransform="matrix(2.417465,-0.46869043,0.91894334,4.7398308,1.00827,17.8216)">
      <stop
         offset="0.68"
         stop-color="#4A3328"
         id="stop340" />
      <stop
         offset="0.85"
         stop-color="#35241D"
         id="stop342" />
      <stop
         offset="1"
         stop-color="#211613"
         id="stop344" />
    </radialGradient>
    <radialGradient
       id="paint23_radial_11466_63464"
       cx="0"
       cy="0"
       r="1"
       gradientUnits="userSpaceOnUse"
       gradientTransform="matrix(15.5517,0,0,15.5517,87.8064,7.0096003)">
      <stop
         offset="0.68"
         stop-color="#4A3328"
         id="stop347" />
      <stop
         offset="0.85"
         stop-color="#35241D"
         id="stop349" />
      <stop
         offset="1"
         stop-color="#211613"
         id="stop351" />
    </radialGradient>
    <linearGradient
       id="paint24_linear_11466_63464"
       x1="86.393501"
       y1="57.889599"
       x2="96.356102"
       y2="57.889599"
       gradientUnits="userSpaceOnUse"
       gradientTransform="translate(0,-33.1992)">
      <stop
         offset="0.68"
         stop-color="#BC5118"
         id="stop354" />
      <stop
         offset="0.78"
         stop-color="#A74716"
         id="stop356" />
      <stop
         offset="0.98"
         stop-color="#722D11"
         id="stop358" />
      <stop
         offset="1"
         stop-color="#6D2B11"
         id="stop360" />
    </linearGradient>
    <radialGradient
       id="paint25_radial_11466_63464"
       cx="0"
       cy="0"
       r="1"
       gradientUnits="userSpaceOnUse"
       gradientTransform="matrix(-12.7162,0,0,-12.7162,88.3008,11.7401)">
      <stop
         offset="0.68"
         stop-color="#AE572A"
         id="stop363" />
      <stop
         offset="0.78"
         stop-color="#994C25"
         id="stop365" />
      <stop
         offset="1"
         stop-color="#652F19"
         id="stop367" />
    </radialGradient>
    <radialGradient
       id="paint26_radial_11466_63464"
       cx="0"
       cy="0"
       r="1"
       gradientUnits="userSpaceOnUse"
       gradientTransform="matrix(25.2443,0,0,25.2443,88.0285,43.3998)">
      <stop
         offset="0.68"
         stop-color="#F66DBC"
         id="stop370" />
      <stop
         offset="0.73"
         stop-color="#EA63A7"
         id="stop372" />
      <stop
         offset="0.84"
         stop-color="#CC4A72"
         id="stop374" />
      <stop
         offset="1"
         stop-color="#9B211B"
         id="stop376" />
    </radialGradient>
    <radialGradient
       id="paint27_radial_11466_63464"
       cx="0"
       cy="0"
       r="1"
       gradientUnits="userSpaceOnUse"
       gradientTransform="matrix(18.3221,0,0,59.9133,92.7727,36.9979)">
      <stop
         offset="0.68"
         stop-color="#9B211B"
         stop-opacity="0"
         id="stop379" />
      <stop
         offset="0.73"
         stop-color="#9B211B"
         stop-opacity="0.13"
         id="stop381" />
      <stop
         offset="0.85"
         stop-color="#9B211B"
         stop-opacity="0.48"
         id="stop383" />
      <stop
         offset="1"
         stop-color="#9B211B"
         id="stop385" />
    </radialGradient>
    <linearGradient
       id="paint28_linear_11466_63464"
       x1="85.939697"
       y1="66.997002"
       x2="94.022797"
       y2="66.997002"
       gradientUnits="userSpaceOnUse"
       gradientTransform="translate(0,-33.1992)">
      <stop
         offset="0.68"
         stop-color="#F2F7F2"
         id="stop388" />
      <stop
         offset="0.83"
         stop-color="#DDE7DD"
         id="stop390" />
      <stop
         offset="1"
         stop-color="#C3D2C3"
         id="stop392" />
    </linearGradient>
    <linearGradient
       id="paint29_linear_11466_63464"
       x1="86.536003"
       y1="65.765099"
       x2="93.425697"
       y2="65.765099"
       gradientUnits="userSpaceOnUse"
       gradientTransform="translate(0,-33.1992)">
      <stop
         offset="0.17"
         stop-color="#F2F7F2"
         id="stop395" />
      <stop
         offset="0.57"
         stop-color="#DDE7DD"
         id="stop397" />
      <stop
         offset="1"
         stop-color="#C3D2C3"
         id="stop399" />
    </linearGradient>
    <linearGradient
       id="paint30_linear_11466_63464"
       x1="86.536003"
       y1="71.963501"
       x2="93.425697"
       y2="71.963501"
       gradientUnits="userSpaceOnUse"
       gradientTransform="translate(0,-33.1992)">
      <stop
         offset="0.68"
         stop-color="#95DF00"
         id="stop402" />
      <stop
         offset="0.74"
         stop-color="#80D600"
         id="stop404" />
      <stop
         offset="0.86"
         stop-color="#4BBF00"
         id="stop406" />
      <stop
         offset="0.97"
         stop-color="#14A800"
         id="stop408" />
      <stop
         offset="0.98"
         stop-color="#229304"
         id="stop410" />
      <stop
         offset="0.99"
         stop-color="#465E0F"
         id="stop412" />
      <stop
         offset="1"
         stop-color="#652F19"
         id="stop414" />
    </linearGradient>
    <radialGradient
       id="paint31_radial_11466_63464"
       cx="0"
       cy="0"
       r="1"
       gradientUnits="userSpaceOnUse"
       gradientTransform="matrix(5.4073,0,0,6.75912,92.2088,39.1781)">
      <stop
         offset="0.68"
         stop-color="#AE572A"
         id="stop417" />
      <stop
         offset="0.78"
         stop-color="#994C25"
         id="stop419" />
      <stop
         offset="1"
         stop-color="#652F19"
         id="stop421" />
    </radialGradient>
    <radialGradient
       id="paint32_radial_11466_63464"
       cx="0"
       cy="0"
       r="1"
       gradientUnits="userSpaceOnUse"
       gradientTransform="matrix(-0.42223801,2.6126099,-4.7282581,-0.76415937,91.1119,40.8259)">
      <stop
         offset="0.68"
         stop-color="#652F19"
         id="stop424" />
      <stop
         offset="0.76"
         stop-color="#672E17"
         stop-opacity="0.79"
         id="stop426" />
      <stop
         offset="0.92"
         stop-color="#6B2C13"
         stop-opacity="0.27"
         id="stop428" />
      <stop
         offset="1"
         stop-color="#6D2B11"
         stop-opacity="0"
         id="stop430" />
    </radialGradient>
    <radialGradient
       id="paint33_radial_11466_63464"
       cx="0"
       cy="0"
       r="1"
       gradientUnits="userSpaceOnUse"
       gradientTransform="matrix(-0.33055235,2.444593,-4.693586,-0.63465611,91.0576,38.8424)">
      <stop
         offset="0.68"
         stop-color="#652F19"
         id="stop433" />
      <stop
         offset="0.76"
         stop-color="#672E17"
         stop-opacity="0.79"
         id="stop435" />
      <stop
         offset="0.92"
         stop-color="#6B2C13"
         stop-opacity="0.27"
         id="stop437" />
      <stop
         offset="1"
         stop-color="#6D2B11"
         stop-opacity="0"
         id="stop439" />
    </radialGradient>
    <radialGradient
       id="paint34_radial_11466_63464"
       cx="0"
       cy="0"
       r="1"
       gradientUnits="userSpaceOnUse"
       gradientTransform="matrix(-0.78415955,2.4448631,-5.0365585,-1.6154138,90.2293,42.5848)">
      <stop
         offset="0.68"
         stop-color="#652F19"
         id="stop442" />
      <stop
         offset="0.76"
         stop-color="#672E17"
         stop-opacity="0.79"
         id="stop444" />
      <stop
         offset="0.92"
         stop-color="#6B2C13"
         stop-opacity="0.27"
         id="stop446" />
      <stop
         offset="1"
         stop-color="#6D2B11"
         stop-opacity="0"
         id="stop448" />
    </radialGradient>
    <radialGradient
       id="paint35_radial_11466_63464"
       cx="0"
       cy="0"
       r="1"
       gradientUnits="userSpaceOnUse"
       gradientTransform="matrix(-1.2043813,2.0132515,-2.5164271,-1.5053945,90.2829,43.8621)">
      <stop
         offset="0.68"
         stop-color="#652F19"
         id="stop451" />
      <stop
         offset="0.76"
         stop-color="#672E17"
         stop-opacity="0.79"
         id="stop453" />
      <stop
         offset="0.92"
         stop-color="#6B2C13"
         stop-opacity="0.27"
         id="stop455" />
      <stop
         offset="1"
         stop-color="#6D2B11"
         stop-opacity="0"
         id="stop457" />
    </radialGradient>
    <radialGradient
       id="paint36_radial_11466_63464"
       cx="0"
       cy="0"
       r="1"
       gradientUnits="userSpaceOnUse"
       gradientTransform="matrix(11.767384,2.2212795,-2.9764833,15.76813,105.556,38.9498)">
      <stop
         offset="0.68"
         stop-color="#9B211B"
         stop-opacity="0"
         id="stop460" />
      <stop
         offset="0.73"
         stop-color="#9B211B"
         stop-opacity="0.13"
         id="stop462" />
      <stop
         offset="0.85"
         stop-color="#9B211B"
         stop-opacity="0.48"
         id="stop464" />
      <stop
         offset="1"
         stop-color="#9B211B"
         id="stop466" />
    </radialGradient>
    <radialGradient
       id="paint37_radial_11466_63464"
       cx="0"
       cy="0"
       r="1"
       gradientUnits="userSpaceOnUse"
       gradientTransform="matrix(13.231005,0.79386487,-1.7468824,29.11454,72.3142,40.2599)">
      <stop
         offset="0.68"
         stop-color="#9B211B"
         stop-opacity="0"
         id="stop469" />
      <stop
         offset="0.73"
         stop-color="#9B211B"
         stop-opacity="0.13"
         id="stop471" />
      <stop
         offset="0.85"
         stop-color="#9B211B"
         stop-opacity="0.48"
         id="stop473" />
      <stop
         offset="1"
         stop-color="#9B211B"
         id="stop475" />
    </radialGradient>
    <radialGradient
       id="paint38_radial_11466_63464"
       cx="0"
       cy="0"
       r="1"
       gradientUnits="userSpaceOnUse"
       gradientTransform="matrix(9.9589374,-1.7024268,3.5920576,21.012989,94.7712,47.7013)">
      <stop
         offset="0.68"
         stop-color="#9B211B"
         id="stop478" />
      <stop
         offset="0.73"
         stop-color="#9B211B"
         stop-opacity="0.87"
         id="stop480" />
      <stop
         offset="0.85"
         stop-color="#9B211B"
         stop-opacity="0.52"
         id="stop482" />
      <stop
         offset="1"
         stop-color="#9B211B"
         stop-opacity="0"
         id="stop484" />
    </radialGradient>
    <radialGradient
       id="paint39_radial_11466_63464"
       cx="0"
       cy="0"
       r="1"
       gradientUnits="userSpaceOnUse"
       gradientTransform="matrix(14.1723,0,0,14.1723,55.2911,12.939)">
      <stop
         offset="0.68"
         stop-color="#FCCD81"
         id="stop487" />
      <stop
         offset="0.81"
         stop-color="#F6B96C"
         id="stop489" />
      <stop
         offset="1"
         stop-color="#EB9546"
         id="stop491" />
    </radialGradient>
    <linearGradient
       id="paint40_linear_11466_63464"
       x1="52.810001"
       y1="57.1987"
       x2="64.757202"
       y2="57.1987"
       gradientUnits="userSpaceOnUse"
       gradientTransform="translate(0,-33.1992)">
      <stop
         offset="0.68"
         stop-color="#F7B0B2"
         id="stop494" />
      <stop
         offset="0.77"
         stop-color="#E29DA1"
         id="stop496" />
      <stop
         offset="0.96"
         stop-color="#AD6C74"
         id="stop498" />
      <stop
         offset="1"
         stop-color="#A06069"
         id="stop500" />
    </linearGradient>
    <radialGradient
       id="paint41_radial_11466_63464"
       cx="0"
       cy="0"
       r="1"
       gradientUnits="userSpaceOnUse"
       gradientTransform="matrix(9.348,0,0,9.348,56.9157,13.4359)">
      <stop
         offset="0.68"
         stop-color="#F7B0B2"
         id="stop503" />
      <stop
         offset="0.77"
         stop-color="#E29DA1"
         id="stop505" />
      <stop
         offset="0.96"
         stop-color="#AD6C74"
         id="stop507" />
      <stop
         offset="1"
         stop-color="#A06069"
         id="stop509" />
    </radialGradient>
    <linearGradient
       id="paint42_linear_11466_63464"
       x1="41.364601"
       y1="82.715202"
       x2="46.9589"
       y2="83.013603"
       gradientUnits="userSpaceOnUse"
       gradientTransform="translate(0,-33.1992)">
      <stop
         offset="0.43"
         stop-color="#F7B0B2"
         id="stop512" />
      <stop
         offset="0.59"
         stop-color="#E29DA1"
         id="stop514" />
      <stop
         offset="0.92"
         stop-color="#AD6C74"
         id="stop516" />
      <stop
         offset="1"
         stop-color="#A06069"
         id="stop518" />
    </linearGradient>
    <linearGradient
       id="paint43_linear_11466_63464"
       x1="70.552299"
       y1="83.836998"
       x2="76.214897"
       y2="83.457703"
       gradientUnits="userSpaceOnUse"
       gradientTransform="translate(0,-33.1992)">
      <stop
         offset="0.46"
         stop-color="#F7B0B2"
         id="stop521" />
      <stop
         offset="0.62"
         stop-color="#E29DA1"
         id="stop523" />
      <stop
         offset="0.93"
         stop-color="#AD6C74"
         id="stop525" />
      <stop
         offset="1"
         stop-color="#A06069"
         id="stop527" />
    </linearGradient>
    <radialGradient
       id="paint44_radial_11466_63464"
       cx="0"
       cy="0"
       r="1"
       gradientUnits="userSpaceOnUse"
       gradientTransform="matrix(19.3947,0,0,27.5405,57.7112,42.8596)">
      <stop
         offset="0.68"
         stop-color="#13544E"
         id="stop530" />
      <stop
         offset="0.94"
         stop-color="#0E3F3A"
         id="stop532" />
      <stop
         offset="1"
         stop-color="#0D3A35"
         id="stop534" />
    </radialGradient>
    <radialGradient
       id="paint45_radial_11466_63464"
       cx="0"
       cy="0"
       r="1"
       gradientUnits="userSpaceOnUse"
       gradientTransform="matrix(6.2478,0,0,8.87188,43.4191,28.8825)">
      <stop
         offset="0.68"
         stop-color="#13544E"
         id="stop537" />
      <stop
         offset="0.94"
         stop-color="#0E3F3A"
         id="stop539" />
      <stop
         offset="1"
         stop-color="#0D3A35"
         id="stop541" />
    </radialGradient>
    <radialGradient
       id="paint46_radial_11466_63464"
       cx="0"
       cy="0"
       r="1"
       gradientUnits="userSpaceOnUse"
       gradientTransform="matrix(-6.2478,0,0,-8.87188,74.1444,28.8825)">
      <stop
         offset="0.68"
         stop-color="#0D3A35"
         stop-opacity="0"
         id="stop544" />
      <stop
         offset="0.81"
         stop-color="#0D3A35"
         stop-opacity="0.36"
         id="stop546" />
      <stop
         offset="1"
         stop-color="#0D3A35"
         id="stop548" />
    </radialGradient>
  </defs>
</svg>
