<svg width="216" height="272" viewBox="0 0 216 272" fill="none" xmlns="http://www.w3.org/2000/svg">
<mask id="mask0_2720_127179" style="mask-type:alpha" maskUnits="userSpaceOnUse" x="0" y="0" width="216" height="272">
<rect width="216" height="272" rx="16" fill="#F9F6FF"/>
</mask>
<g mask="url(#mask0_2720_127179)">
<g opacity="0.5">
<path fill-rule="evenodd" clip-rule="evenodd" d="M76.7364 324.872C93.3943 315.084 105.55 298.978 110.534 280.09C115.518 261.201 112.922 241.075 103.318 224.129C93.6737 207.201 77.8158 194.853 59.2241 189.794C40.6323 184.735 20.8253 187.379 4.14944 197.146C-4.12569 201.961 -11.3778 208.399 -17.1863 216.085C-22.9948 223.771 -27.244 232.552 -29.6876 241.92C-32.1809 251.273 -32.8235 261.036 -31.578 270.643C-30.3326 280.25 -27.224 289.511 -22.4322 297.888C-12.7787 314.806 3.07903 327.146 21.667 332.204C40.2549 337.261 60.0575 334.625 76.7364 324.872ZM-13.3385 166.376C38.019 136.267 103.952 154.207 133.592 206.388C147.816 231.491 151.659 261.303 144.278 289.282C136.897 317.262 118.896 341.121 94.2243 355.625C69.5183 370.102 40.1697 374.023 12.6218 366.527C-14.9261 359.032 -38.4216 340.732 -52.7066 315.646C-59.8064 303.234 -64.4113 289.514 -66.2544 275.28C-68.0975 261.047 -67.142 246.583 -63.4433 232.727C-59.8249 218.849 -53.5331 205.838 -44.9324 194.449C-36.3318 183.059 -25.5931 173.517 -13.3385 166.376ZM-84.2336 334.131C-58.5304 379.368 -68.4538 435.666 -104.975 469.478C-114.664 462.52 -123.852 454.868 -132.468 446.579C-118.796 435.609 -109.462 420.009 -106.167 402.626C-102.873 385.242 -105.839 367.234 -114.524 351.888C-119.273 343.483 -125.614 336.119 -133.181 330.221C-140.749 324.324 -149.392 320.01 -158.61 317.53C-173.711 313.381 -189.731 314.351 -204.241 320.292C-206.988 308.579 -208.912 296.683 -210 284.694C-190.409 278.299 -169.418 277.788 -149.549 283.222C-135.89 286.901 -123.085 293.296 -111.874 302.037C-100.663 310.778 -91.268 321.692 -84.2336 334.147V334.131ZM154.399 104.968C159.695 84.7703 170.62 66.5579 185.861 52.5223C195.546 59.479 204.734 67.126 213.353 75.4055C201.034 85.1981 192.188 98.803 188.155 114.161C185.664 123.512 185.022 133.272 186.268 142.876C187.513 152.48 190.62 161.737 195.41 170.113C200.156 178.519 206.497 185.885 214.065 191.783C221.632 197.68 230.276 201.993 239.496 204.47C254.788 208.654 270.649 207.579 285.111 201.676C287.876 213.448 289.796 225.303 290.87 237.175C280.401 240.661 269.464 242.474 258.448 242.548C248.993 242.543 239.581 241.275 230.451 238.779C216.793 235.104 203.987 228.713 192.776 219.974C181.564 211.236 172.17 200.324 165.136 187.87C158.035 175.462 153.43 161.745 151.587 147.514C149.744 133.283 150.7 118.821 154.399 104.968ZM40.4429 407.244C91.8492 407.244 134.894 444.099 145.468 493.139C134.568 498.248 123.441 502.464 112.2 505.87C109.672 488.353 101.035 472.344 87.8631 460.759C74.6912 449.174 57.8618 442.786 40.4429 442.759C23.0341 442.788 6.21452 449.171 -6.95296 460.745C-20.1204 472.32 -28.7599 488.316 -31.2981 505.82C-42.6673 502.388 -53.7841 498.145 -64.5658 493.122C-53.9917 444.082 -10.9633 407.244 40.4429 407.244ZM40.4429 114.757C-10.9633 114.757 -54.008 77.8856 -64.582 28.8621C-53.6826 23.7531 -42.5554 19.5369 -31.3144 16.1309C-28.7829 33.6444 -20.1441 49.6504 -6.97252 61.2318C6.19905 72.8131 23.0265 79.1988 40.4429 79.2249C76.8828 79.2249 107.076 51.7783 112.184 16.1805C123.562 19.6025 134.685 23.846 145.468 28.8786C134.894 77.9021 91.8492 114.74 40.4429 114.74V114.757ZM230.451 283.239C250.296 277.798 271.265 278.297 290.837 284.677C289.728 296.672 287.793 308.572 285.046 320.292C270.557 314.385 254.573 313.416 239.496 317.53C230.277 320.01 221.634 324.323 214.066 330.22C206.499 336.118 200.158 343.483 195.41 351.888C190.622 360.264 187.516 369.522 186.27 379.125C185.025 388.729 185.665 398.489 188.155 407.839C192.179 423.189 201.013 436.788 213.321 446.579C204.797 454.763 195.638 462.435 185.828 469.462C170.596 455.436 159.675 437.235 154.383 417.049C146.948 388.858 150.755 359.411 165.119 334.131C179.484 308.85 202.698 290.778 230.435 283.222L230.451 283.239ZM-149.565 238.779C-158.7 241.275 -168.118 242.543 -177.578 242.548C-188.577 242.476 -199.498 240.669 -209.951 237.191C-208.845 225.237 -206.909 213.382 -204.16 201.726C-189.73 207.579 -173.902 208.637 -158.61 204.47C-149.391 201.992 -140.747 197.679 -133.18 191.782C-125.612 185.884 -119.271 178.519 -114.524 170.113C-109.734 161.741 -106.626 152.486 -105.381 142.884C-104.136 133.283 -104.777 123.526 -107.269 114.178C-111.296 98.8258 -120.137 85.2261 -132.451 75.4386C-123.831 67.1546 -114.644 59.5022 -104.959 52.5389C-89.7247 66.5702 -78.8048 84.7771 -73.5131 104.968C-69.8194 118.822 -68.8664 133.282 -70.7094 147.513C-72.5524 161.743 -77.1547 175.46 -84.2498 187.87C-91.2852 200.323 -100.68 211.234 -111.892 219.972C-123.103 228.711 -135.908 235.103 -149.565 238.779Z" fill="#DEF2B1"/>
</g>
</g>
</svg>
