<svg width="218" height="272" viewBox="0 0 218 272" fill="none" xmlns="http://www.w3.org/2000/svg">
<mask id="mask0_2504_92821" style="mask-type:alpha" maskUnits="userSpaceOnUse" x="0" y="0" width="218" height="272">
<rect width="218" height="272" rx="16" fill="#F9F6FF"/>
</mask>
<g mask="url(#mask0_2504_92821)">
<g opacity="0.39">
<rect x="191.207" y="-46.0762" width="31" height="124" transform="rotate(45 191.207 -46.0762)" fill="#E9D7FF"/>
<rect x="195.449" y="-138" width="31" height="192" transform="rotate(45 195.449 -138)" fill="#E9D7FF"/>
<rect x="187.671" y="45.1406" width="31" height="57" transform="rotate(45 187.671 45.1406)" fill="#E9D7FF"/>
<rect x="173.529" y="-28.3984" width="31" height="129" transform="rotate(-45 173.529 -28.3984)" fill="#E9D7FF"/>
<rect x="192.621" y="-96.9883" width="31" height="164" transform="rotate(-45 192.621 -96.9883)" fill="#E9D7FF"/>
<rect x="173.529" y="59.2832" width="31" height="67" transform="rotate(-45 173.529 59.2832)" fill="#E9D7FF"/>
<rect x="352.716" y="19.2666" width="31" height="192" transform="rotate(45 352.716 19.2666)" fill="#E9D7FF"/>
<rect x="33.6826" y="111.77" width="31" height="124" transform="rotate(45 33.6826 111.77)" fill="#E9D7FF"/>
<rect x="37.9253" y="19.8457" width="31" height="192" transform="rotate(45 37.9253 19.8457)" fill="#E9D7FF"/>
<rect x="30.147" y="202.986" width="31" height="57" transform="rotate(45 30.147 202.986)" fill="#E9D7FF"/>
<rect x="16.0049" y="129.447" width="31" height="129" transform="rotate(-45 16.0049 129.447)" fill="#E9D7FF"/>
<rect x="35.0967" y="60.8574" width="31" height="164" transform="rotate(-45 35.0967 60.8574)" fill="#E9D7FF"/>
<rect x="16.0049" y="217.129" width="31" height="67" transform="rotate(-45 16.0049 217.129)" fill="#E9D7FF"/>
<rect x="190.949" y="269.036" width="31" height="124" transform="rotate(45 190.949 269.036)" fill="#E9D7FF"/>
<rect x="195.192" y="177.112" width="31" height="192" transform="rotate(45 195.192 177.112)" fill="#E9D7FF"/>
<rect x="173.271" y="286.714" width="31" height="129" transform="rotate(-45 173.271 286.714)" fill="#E9D7FF"/>
<rect x="192.363" y="218.124" width="31" height="164" transform="rotate(-45 192.363 218.124)" fill="#E9D7FF"/>
</g>
</g>
</svg>
